<svg aria-hidden="true" style="position: absolute; width: 0; height: 0; overflow: hidden;" version="1.1" xmlns="http://www.w3.org/2000/svg" xmlns:xlink="http://www.w3.org/1999/xlink">
<defs>
<symbol id="ic_pencil" viewBox="0 0 32 32">
<path d="M27 0c2.761 0 5 2.239 5 5 0 1.126-0.372 2.164-1 3l-2 2-7-7 2-2c0.836-0.628 1.874-1 3-1zM2 23l-2 9 9-2 18.5-18.5-7-7-18.5 18.5zM22.362 11.362l-14 14-1.724-1.724 14-14 1.724 1.724z"></path>
</symbol>
<symbol id="ic_box-add" viewBox="0 0 32 32">
<path d="M26 2h-20l-6 6v21c0 0.552 0.448 1 1 1h30c0.552 0 1-0.448 1-1v-21l-6-6zM16 26l-10-8h6v-6h8v6h6l-10 8zM4.828 6l2-2h18.343l2 2h-22.343z"></path>
</symbol>
<symbol id="ic_box-remove" viewBox="0 0 32 32">
<path d="M26 2h-20l-6 6v21c0 0.552 0.448 1 1 1h30c0.552 0 1-0.448 1-1v-21l-6-6zM20 20v6h-8v-6h-6l10-8 10 8h-6zM4.828 6l2-2h18.343l2 2h-22.343z"></path>
</symbol>
<symbol id="ic_bin2" viewBox="0 0 32 32">
<path d="M6 32h20l2-22h-24zM20 4v-4h-8v4h-10v6l2-2h24l2 2v-6h-10zM18 4h-4v-2h4v2z"></path>
</symbol>
<symbol id="ic_checkbox-checked" viewBox="0 0 32 32">
<path d="M28 0h-24c-2.2 0-4 1.8-4 4v24c0 2.2 1.8 4 4 4h24c2.2 0 4-1.8 4-4v-24c0-2.2-1.8-4-4-4zM14 24.828l-7.414-7.414 2.828-2.828 4.586 4.586 9.586-9.586 2.828 2.828-12.414 12.414z"></path>
</symbol>
<symbol id="ic_checkbox-unchecked" viewBox="0 0 32 32">
<path d="M28 0h-24c-2.2 0-4 1.8-4 4v24c0 2.2 1.8 4 4 4h24c2.2 0 4-1.8 4-4v-24c0-2.2-1.8-4-4-4zM28 28h-24v-24h24v24z"></path>
</symbol>
</defs>
<symbol id="ic_pencil" viewBox="0 0 32 32">
<path d="M27 0c2.761 0 5 2.239 5 5 0 1.126-0.372 2.164-1 3l-2 2-7-7 2-2c0.836-0.628 1.874-1 3-1zM2 23l-2 9 9-2 18.5-18.5-7-7-18.5 18.5zM22.362 11.362l-14 14-1.724-1.724 14-14 1.724 1.724z"></path>
</symbol>
<symbol id="ic_box-add" viewBox="0 0 32 32">
<path d="M26 2h-20l-6 6v21c0 0.552 0.448 1 1 1h30c0.552 0 1-0.448 1-1v-21l-6-6zM16 26l-10-8h6v-6h8v6h6l-10 8zM4.828 6l2-2h18.343l2 2h-22.343z"></path>
</symbol>


<symbol id="ic_checkbox-checked" viewBox="0 0 32 32">
<path d="M28 0h-24c-2.2 0-4 1.8-4 4v24c0 2.2 1.8 4 4 4h24c2.2 0 4-1.8 4-4v-24c0-2.2-1.8-4-4-4zM14 24.828l-7.414-7.414 2.828-2.828 4.586 4.586 9.586-9.586 2.828 2.828-12.414 12.414z"></path>
</symbol>
<symbol id="ic_checkbox-unchecked" viewBox="0 0 32 32">
<path d="M28 0h-24c-2.2 0-4 1.8-4 4v24c0 2.2 1.8 4 4 4h24c2.2 0 4-1.8 4-4v-24c0-2.2-1.8-4-4-4zM28 28h-24v-24h24v24z"></path>
</symbol>
<symbol id="ic_brain" viewBox="0 0 32 32">
<path d="M29.333 14.667c0-0.006 0-0.014 0-0.021 0-1.964-1.061-3.68-2.642-4.605l-0.025-0.014c0.010-0.104 0.015-0.225 0.015-0.347s-0.005-0.243-0.016-0.362l0.001 0.015c0-2.209-1.791-4-4-4v0h-0.24c-0.572-1.554-2.040-2.643-3.763-2.643-1.025 0-1.96 0.386-2.668 1.019l0.004-0.003c-0.704-0.631-1.639-1.016-2.664-1.016-1.722 0-3.19 1.088-3.754 2.615l-0.009 0.028h-0.24c-2.209 0-4 1.791-4 4v0c-0.010 0.104-0.015 0.225-0.015 0.347s0.005 0.243 0.016 0.362l-0.001-0.015c-1.629 0.934-2.709 2.662-2.709 4.643 0 1.669 0.766 3.158 1.966 4.136l0.010 0.008c-0.399 0.729-0.633 1.597-0.633 2.52 0 2.946 2.388 5.333 5.333 5.333 0.012 0 0.023-0 0.035-0h0.238c0.572 1.554 2.040 2.643 3.763 2.643 1.025 0 1.96-0.386 2.668-1.020l-0.004 0.003c0.704 0.631 1.639 1.016 2.664 1.016 1.722 0 3.19-1.088 3.754-2.615l0.009-0.028h0.24c2.931-0.019 5.3-2.4 5.3-5.333 0-0.923-0.234-1.791-0.647-2.548l0.014 0.028c1.219-0.982 1.995-2.473 2-4.146v-0.001zM14.667 11.4c-0.254-0.149-0.553-0.293-0.864-0.412l-0.043-0.015c-0.127-0.044-0.274-0.070-0.427-0.070-0.738 0-1.337 0.598-1.337 1.337 0 0.585 0.376 1.083 0.901 1.264l0.009 0.003c1.031 0.38 1.754 1.352 1.76 2.493v2.067c-0.254-0.149-0.553-0.293-0.864-0.412l-0.043-0.015c-0.127-0.044-0.274-0.070-0.427-0.070-0.738 0-1.337 0.598-1.337 1.337 0 0.585 0.376 1.083 0.901 1.264l0.009 0.003c1.031 0.38 1.754 1.352 1.76 2.493v2.667c0 0.736-0.597 1.333-1.333 1.333v0c-0.54-0.004-1.003-0.328-1.21-0.792l-0.003-0.008c0.244-0.144 0.453-0.289 0.651-0.448l-0.011 0.008c0.295-0.247 0.482-0.615 0.482-1.027 0-0.737-0.598-1.335-1.335-1.335-0.325 0-0.624 0.116-0.855 0.31l0.002-0.002c-0.461 0.39-1.061 0.627-1.717 0.627-0.001 0-0.002 0-0.003 0h0c-1.473 0-2.667-1.194-2.667-2.667v0c0.007-0.526 0.165-1.014 0.433-1.424l-0.006 0.010c0.27 0.051 0.581 0.080 0.899 0.080 0.003 0 0.005 0 0.008 0h-0c0.736 0 1.333-0.597 1.333-1.333s-0.597-1.333-1.333-1.333v0c-0.004 0-0.009 0-0.014 0-0.326 0-0.638-0.064-0.922-0.179l0.016 0.006c-1.036-0.382-1.762-1.36-1.762-2.508 0-0.988 0.537-1.851 1.336-2.311l0.013-0.007c0.182 0.168 0.383 0.322 0.596 0.457l0.017 0.010c0.191 0.112 0.421 0.178 0.667 0.178 0.739 0 1.338-0.599 1.338-1.338 0-0.494-0.267-0.925-0.665-1.157l-0.006-0.003c-0.189-0.106-0.343-0.255-0.45-0.435l-0.003-0.005c-0.103-0.176-0.164-0.387-0.164-0.612 0-0.033 0.001-0.066 0.004-0.099l-0 0.004c0-0.736 0.597-1.333 1.333-1.333v0c0.042-0.006 0.091-0.010 0.14-0.010s0.098 0.004 0.145 0.010l-0.005-0.001c0.083 0.25 0.168 0.457 0.267 0.657l-0.013-0.030c0.234 0.405 0.665 0.673 1.158 0.673 0.246 0 0.477-0.067 0.675-0.183l-0.006 0.003c0.39-0.237 0.646-0.66 0.646-1.142 0-0.236-0.062-0.458-0.169-0.651l0.003 0.007c-0.107-0.192-0.171-0.422-0.173-0.666v-0.001c0-0.736 0.597-1.333 1.333-1.333s1.333 0.597 1.333 1.333v0zM24.92 17.16c-0.268 0.11-0.58 0.173-0.906 0.173-0.005 0-0.010 0-0.015-0h0.001c-0.736 0-1.333 0.597-1.333 1.333s0.597 1.333 1.333 1.333v0c0.002 0 0.005 0 0.007 0 0.318 0 0.629-0.029 0.931-0.085l-0.031 0.005c0.262 0.399 0.42 0.887 0.427 1.412l0 0.002c0 1.473-1.194 2.667-2.667 2.667v0c-0.001 0-0.002 0-0.003 0-0.656 0-1.257-0.237-1.721-0.63l0.004 0.003c-0.23-0.192-0.528-0.308-0.853-0.308-0.737 0-1.335 0.598-1.335 1.335 0 0.412 0.186 0.78 0.48 1.025l0.002 0.002c0.187 0.151 0.396 0.296 0.615 0.426l0.025 0.014c-0.21 0.472-0.673 0.796-1.213 0.8h-0c-0.736 0-1.333-0.597-1.333-1.333v0-2.667c0.006-1.142 0.729-2.113 1.742-2.487l0.018-0.006c0.533-0.184 0.91-0.681 0.91-1.267 0-0.738-0.598-1.337-1.337-1.337-0.153 0-0.299 0.026-0.436 0.073l0.009-0.003c-0.354 0.134-0.652 0.278-0.937 0.443l0.030-0.016v-2.067c0.006-1.142 0.729-2.113 1.742-2.487l0.018-0.006c0.533-0.184 0.91-0.681 0.91-1.267 0-0.738-0.598-1.337-1.337-1.337-0.153 0-0.299 0.026-0.436 0.073l0.009-0.003c-0.354 0.134-0.652 0.278-0.937 0.443l0.030-0.016v-4.733c0-0.736 0.597-1.333 1.333-1.333s1.333 0.597 1.333 1.333v0c-0.002 0.245-0.066 0.474-0.177 0.674l0.004-0.007c-0.115 0.193-0.183 0.426-0.183 0.674 0 0.489 0.264 0.917 0.657 1.149l0.006 0.003c0.192 0.113 0.422 0.18 0.668 0.18 0.493 0 0.924-0.268 1.155-0.667l0.003-0.006c0.087-0.182 0.173-0.403 0.244-0.63l0.010-0.036c0.042-0.006 0.091-0.010 0.14-0.010s0.098 0.004 0.145 0.010l-0.005-0.001c0.736 0 1.333 0.597 1.333 1.333v0c-0.002 0.274-0.087 0.527-0.23 0.738l0.003-0.005c-0.11 0.173-0.259 0.313-0.434 0.41l-0.006 0.003c-0.404 0.235-0.671 0.666-0.671 1.16 0 0.739 0.599 1.338 1.338 1.338 0.245 0 0.475-0.066 0.673-0.181l-0.006 0.003c0.253-0.138 0.472-0.293 0.67-0.47l-0.004 0.003c0.823 0.465 1.37 1.333 1.37 2.33 0 1.136-0.711 2.106-1.711 2.49l-0.018 0.006z"></path>
</symbol>
<symbol id="ic_google-hangouts-alt" viewBox="0 0 32 32">
<path d="M11.989 10.254c-1.473 0-2.667 1.194-2.667 2.667s1.194 2.667 2.667 2.667v0l0.020-0.002v0.669c-0.001 0.368-0.299 0.666-0.667 0.667h-0c-0.736 0-1.333 0.597-1.333 1.333s0.597 1.333 1.333 1.333v0c1.84-0.002 3.332-1.493 3.333-3.333v-3.334c-0.009-0.076-0.023-0.144-0.043-0.209l0.002 0.009c-0.103-1.381-1.248-2.463-2.646-2.466h-0zM15.988 1.336c-7.207 0-13.050 5.843-13.050 13.050 0 6.737 5.106 12.282 11.659 12.977l0.057 0.005v1.969c0 0 0 0.001 0 0.001 0 0.736 0.596 1.332 1.332 1.332 0.114 0 0.224-0.014 0.329-0.041l-0.009 0.002c6.829-1.732 11.921-7.502 12.617-14.564l0.006-0.069c0.070-0.505 0.11-1.089 0.11-1.683 0-7.168-5.811-12.979-12.979-12.979-0.025 0-0.051 0-0.076 0l0.004-0zM26.279 15.71c-0.523 5.412-4.043 9.888-8.862 11.781l-0.096 0.033v-1.422c0-0 0-0 0-0.001 0-0.736-0.597-1.333-1.333-1.333-0 0-0.001 0-0.001 0h0c-5.734-0.001-10.382-4.649-10.382-10.383s4.649-10.383 10.383-10.383 10.383 4.649 10.383 10.383v0c-0.004 0.471-0.038 0.93-0.1 1.38l0.006-0.055zM19.989 10.254c-1.473 0-2.667 1.194-2.667 2.667s1.194 2.667 2.667 2.667v0l0.020-0.002v0.669c-0.001 0.368-0.299 0.666-0.667 0.667h-0c-0.736 0-1.333 0.597-1.333 1.333s0.597 1.333 1.333 1.333v0c1.84-0.002 3.332-1.493 3.333-3.333v-3.334c-0.009-0.076-0.023-0.144-0.043-0.209l0.002 0.009c-0.103-1.381-1.248-2.463-2.646-2.466h-0z"></path>
</symbol>
<symbol id="ic_shopping-cart-alt" viewBox="0 0 32 32">
<path d="M28.667 20c-0.006-1.675-1.042-3.107-2.506-3.697l-0.027-0.010 2.493-9.333c0.028-0.101 0.044-0.218 0.044-0.338 0-0.311-0.107-0.598-0.286-0.825l0.002 0.003c-0.246-0.287-0.609-0.467-1.014-0.467-0.014 0-0.028 0-0.042 0.001l0.002-0h-18.267l-0.44-1.68c-0.158-0.573-0.674-0.987-1.287-0.987-0.002 0-0.004 0-0.006 0h-2.666v2.667h1.64l3.307 12.347c0.158 0.573 0.674 0.987 1.288 0.987 0.016 0 0.032-0 0.048-0.001l-0.002 0h13.72c0.736 0 1.333 0.597 1.333 1.333s-0.597 1.333-1.333 1.333v0h-17.333c-0.736 0-1.333 0.597-1.333 1.333s0.597 1.333 1.333 1.333v0h1.573c-0.152 0.406-0.24 0.875-0.24 1.365 0 2.209 1.791 4 4 4s4-1.791 4-4c0-0.49-0.088-0.959-0.249-1.392l0.009 0.028h3.147c-0.152 0.406-0.24 0.875-0.24 1.364 0 2.209 1.791 4 4 4s4-1.791 4-4c0-0.011-0-0.022-0-0.033v0.002c-0.003-0.723-0.2-1.398-0.543-1.978l0.010 0.018c1.126-0.718 1.863-1.959 1.867-3.373v-0.001zM23.453 16h-11.453l-2.213-8h15.813zM12.667 26.667c-0.736 0-1.333-0.597-1.333-1.333s0.597-1.333 1.333-1.333c0.736 0 1.333 0.597 1.333 1.333v0c0 0.736-0.597 1.333-1.333 1.333v0zM23.333 26.667c-0.736 0-1.333-0.597-1.333-1.333s0.597-1.333 1.333-1.333c0.736 0 1.333 0.597 1.333 1.333v0c0 0.736-0.597 1.333-1.333 1.333v0z"></path>
</symbol>
<symbol id="ic_idea" viewBox="0 0 32 32">
<path d="M22.787 3.76c-1.827-1.511-4.194-2.428-6.776-2.428-0.754 0-1.49 0.078-2.201 0.227l0.069-0.012c-4.238 0.878-7.515 4.178-8.349 8.359l-0.011 0.068c-0.119 0.6-0.187 1.29-0.187 1.995 0 2.621 0.937 5.022 2.494 6.889l-0.014-0.017c0.905 1.017 1.473 2.351 1.52 3.817l0 0.010v4c0 2.209 1.791 4 4 4v0h5.333c2.209 0 4-1.791 4-4v0-3.747c0.048-1.63 0.655-3.11 1.635-4.263l-0.008 0.010c1.477-1.815 2.371-4.156 2.371-6.706 0-3.304-1.502-6.257-3.861-8.213l-0.018-0.014zM20 26.667c0 0.736-0.597 1.333-1.333 1.333v0h-5.333c-0.736 0-1.333-0.597-1.333-1.333v0-1.333h8zM22.227 17.013c-1.292 1.525-2.115 3.483-2.226 5.63l-0.001 0.023h-2.667v-4c0-0.736-0.597-1.333-1.333-1.333s-1.333 0.597-1.333 1.333v0 4h-2.667c-0.038-2.132-0.839-4.069-2.142-5.557l0.009 0.010c-1.156-1.378-1.858-3.17-1.858-5.126 0-3.844 2.711-7.055 6.326-7.825l0.052-0.009c0.485-0.104 1.042-0.164 1.613-0.164 4.418 0 8 3.582 8 8 0 0.002 0 0.003 0 0.005v-0c0 0.013 0 0.027 0 0.042 0 1.892-0.669 3.629-1.784 4.985l0.011-0.014z"></path>
</symbol>
</svg>
